inDegrees=no
num_controls=7
num_derivatives=13
num_iterations=119
num_multipliers=7
num_parameters=0
num_slacks=7
num_states=26
objective=5.452625
objective_accelerations=0.617613
objective_balance=0.050361
objective_effort=0.507899
objective_height=4.256123
objective_ligament=0.020629
solver_duration=1327.809782
status=Solve_Succeeded
success=true
DataType=double
version=3
OpenSimVersion=4.4-2022-07-23-0e9fedc
endheader
time	/jointset/ground_pelvis/pelvis_tilt/value	/jointset/ground_pelvis/pelvis_tx/value	/jointset/ground_pelvis/pelvis_ty/value	/jointset/hip_l/hip_flexion_l/value	/jointset/hip_l/hip_adduction_l/value	/jointset/hip_l/hip_rotation_l/value	/jointset/back/lumbar_extension/value	/jointset/patellofemoral_l/patellar_flexion_l/value	/jointset/knee_l/knee_flexion_l/value	/jointset/knee_l/knee_adduction_l/value	/jointset/knee_l/knee_rotation_l/value	/jointset/ankle_l/ankle_angle_l/value	/jointset/subtalar_l/subtalar_angle_l/value	/jointset/ground_pelvis/pelvis_tilt/speed	/jointset/ground_pelvis/pelvis_tx/speed	/jointset/ground_pelvis/pelvis_ty/speed	/jointset/hip_l/hip_flexion_l/speed	/jointset/hip_l/hip_adduction_l/speed	/jointset/hip_l/hip_rotation_l/speed	/jointset/back/lumbar_extension/speed	/jointset/patellofemoral_l/patellar_flexion_l/speed	/jointset/knee_l/knee_flexion_l/speed	/jointset/knee_l/knee_adduction_l/speed	/jointset/knee_l/knee_rotation_l/speed	/jointset/ankle_l/ankle_angle_l/speed	/jointset/subtalar_l/subtalar_angle_l/speed	/forceset/tau_hip_flexion_l	/forceset/tau_hip_adduction_l	/forceset/tau_hip_rotation_l	/forceset/tau_knee_flexion_l	/forceset/tau_ankle_angle_l	/forceset/tau_subtalar_angle_l	/forceset/tau_lumbar_extension	lambda_cid13_p0	lambda_cid13_p1	lambda_cid13_p2	lambda_cid13_p3	lambda_cid13_p4	lambda_cid13_p5	lambda_cid14_p0	/jointset/ground_pelvis/pelvis_tilt/accel	/jointset/ground_pelvis/pelvis_tx/accel	/jointset/ground_pelvis/pelvis_ty/accel	/jointset/hip_l/hip_flexion_l/accel	/jointset/hip_l/hip_adduction_l/accel	/jointset/hip_l/hip_rotation_l/accel	/jointset/back/lumbar_extension/accel	/jointset/patellofemoral_l/patellar_flexion_l/accel	/jointset/knee_l/knee_flexion_l/accel	/jointset/knee_l/knee_adduction_l/accel	/jointset/knee_l/knee_rotation_l/accel	/jointset/ankle_l/ankle_angle_l/accel	/jointset/subtalar_l/subtalar_angle_l/accel	gamma_cid13_p0	gamma_cid13_p1	gamma_cid13_p2	gamma_cid13_p3	gamma_cid13_p4	gamma_cid13_p5	gamma_cid14_p0
1	-0.7612283671658655	-0.1899963877061774	0.5803721495981685	2.073076424942259	-0.3101381234296546	0.08477484515248983	-0.4363255886198403	1.080690251827172	1.080690251826875	-0.1745030452895322	0.1745222156926089	-0.05193422406823611	-0.07144712123016604	-0.01217852214409283	0.0001106980654846278	-0.003179396823674583	0.01782928119315133	0.0004628003546238434	0.002634315899638586	1.316077693399773e-05	0.006753873223572128	0.006753873223574357	3.38845389993658e-05	-6.640931387660692e-05	0.001611946885069567	0.0006857034311564122	-0.4957858566898161	-0.00951049022164311	-0.01839838494081392	-0.2128063312949887	0.2422533757651758	0.03810802099123116	0.3840029358789342	30.21035631831564	-21.47877853307294	2.609366225116135	-0.822189546279436	-737.1293952379768	-45.91633423793201	-4.701994074013126	2.348796980589628	0.4763091661154279	1.76194025456875	-6.839063574253585	-0.2116719230755542	-1.523574262931266	-0.02214636092393737	-4.198895369308702	-4.198895369308344	-0.03120603178095637	0.006820850301419889	0.05948929564623059	-0.1460639437529724	9.571022462785449e-11	1.7013829131969e-09	-2.84084855370697e-09	1.032045071433702e-09	3.844878970024525e-10	-2.085675690132057e-09	8.352355880508032e-10
1.01	-0.7612336643961879	-0.1899715595223094	0.5804283324106144	2.072913873307903	-0.3101433255315519	0.08472450331596311	-0.4363255116178609	1.080547867989945	1.080547867990036	-0.1745026915556559	0.1745213784871746	-0.0519150635489132	-0.07144682316474077	0.01112108950040996	0.004856472055630761	0.01441342652492773	-0.0503363779228877	-0.001504156759829883	-0.01270351300019384	2.385077973688119e-06	-0.03522671584491206	-0.03522671584491058	3.521691134614618e-05	-9.654378273110298e-05	0.002217994066811555	-0.0006274701304579493	-0.4956750688349145	-0.009475040996891376	-0.01840263936627035	-0.2127730872695359	0.242211325694131	0.03813277958295845	0.3839412765514071	30.2051471060053	-21.48913769046701	2.611609986394215	-0.8416999296894354	-737.0201970725946	-45.93913531410356	-4.708631012402988	2.320844849907231	0.4739413501541445	1.757572715377	-6.804833058715566	-0.189348682981128	-1.539014793378069	0.009478646443853362	-4.197051234290756	-4.197051234291509	0.0155545714152678	-0.007260817643633784	0.06083828581770871	-0.1241516487673299	-1.378966738557713e-09	-5.489052791901853e-09	1.247678674540659e-08	-8.175851199284928e-10	-3.66479465904697e-09	1.669381169159442e-08	-3.542558550933428e-09
1.02	-0.7610059051912735	-0.1898992276316014	0.5806603673246317	2.072069761886746	-0.310168225420051	0.08452075767243121	-0.4363255380088474	1.079985796150288	1.079985796150762	-0.1745023741581445	0.1745203738925674	-0.05188990738647074	-0.07145969835221204	0.03443276488586268	0.009611439433489339	0.03199102348859539	-0.118482676176403	-0.003476756968310232	-0.02804644549474694	-7.517788003851545e-06	-0.07718372726025245	-0.07718372726025348	2.661727061025331e-05	-9.988713818159239e-05	0.002811075503744479	-0.001948947148127844	-0.4955642809800816	-0.009439591772167834	-0.01840689379185057	-0.2127398432440242	0.2421692756231034	0.03815753817466199	0.3838796172237923	30.19677438575204	-21.50031603390938	2.615553018082179	-0.8765340206059182	-736.966427362067	-45.94283537331155	-4.734855038095633	2.351209728779747	0.4781478436578531	1.758894977581769	-6.835191401748784	-0.2128005418809605	-1.524594981875517	-0.02197179432743075	-4.19417983867987	-4.194179838679866	-0.03319243439750345	0.01217907298237989	0.05689614668427632	-0.1477246349641867	-2.742194840726318e-09	-1.203565117803592e-08	2.77849240846499e-08	-2.737797064645452e-09	-7.40531337010962e-09	3.464177442700969e-08	-7.801710432004405e-09
1.03	-0.7605449695231788	-0.18977927917405	0.5810680294934178	2.070544439191429	-0.3102128485590512	0.08416358205187302	-0.4363256631741697	1.079004375257418	1.07900437525766	-0.1745021842222806	0.1745194965978054	-0.05185893652856656	-0.07148581097177233	0.05775579769466838	0.01438180840893662	0.0495316241229461	-0.1865627024795982	-0.005444936763531873	-0.04338760317721508	-1.722799854824128e-05	-0.1190863000067442	-0.1190863000067366	1.216293102597413e-05	-6.892283168472427e-05	0.003376006160338502	-0.00327228032030388	-0.4950198950794636	-0.00934505728627521	-0.01842718535107291	-0.2127147581379693	0.2421056665006778	0.03823716804724623	0.3835585069413621	30.20314130408595	-21.53938618069308	2.625633473978533	-0.9348885713355273	-736.5890930282742	-46.01389614564522	-4.780859384859106	2.323062926372845	0.4770139304181601	1.750172432908632	-6.791535900657638	-0.1883894008024787	-1.538725048751196	0.00957245671486294	-4.186170858496053	-4.186170858495295	0.01454236645278529	-0.0004590885280714628	0.0552291434085983	-0.124445403912809	-4.104285709619239e-09	-1.857567979560912e-08	4.309296450593534e-08	-4.65872923133542e-09	-1.114268142969281e-08	5.258125221705442e-08	-1.205965167779055e-08
1.04	-0.7598507609530124	-0.1896115205255579	0.5816508036338685	2.068338890701917	-0.3102770660364789	0.08365302507703459	-0.4363258768234414	1.077604353663889	1.077604353663912	-0.1745021159697694	0.1745191261062653	-0.0518225288404191	-0.07152511847216801	0.08108734528102279	0.01917347762161736	0.06701341781951653	-0.2545278350249168	-0.007395624657152258	-0.05872271635239278	-2.521456383623252e-05	-0.1609038673876708	-0.1609038673876546	2.280599119528865e-06	1.473554343297588e-06	0.003898441547411798	-0.004587923315203845	-0.4944755091789098	-0.009250522800345896	-0.0184474769101695	-0.2126896730318352	0.2420420573783056	0.03831679791987645	0.3832373966588301	30.20629193112421	-21.57931574131764	2.637476121330918	-1.008376757947297	-736.2677202384461	-46.0662033131325	-4.846852203265511	2.352912684289815	0.4824078911043674	1.747133590025621	-6.812212650173374	-0.2093021615606085	-1.523386080417284	-0.0216270652766973	-4.177178765566827	-4.177178765566823	-0.03227803286188487	0.02006548888839155	0.04839709277981762	-0.1461865995089365	-5.525403927906264e-09	-2.400199579585406e-08	5.863874859145384e-08	-5.838168788536e-09	-1.469081921398643e-08	6.89379701697453e-08	-1.593745456582963e-08
1.05	-0.7589232112022768	-0.1893957222390031	0.5824080375724278	2.065454410117741	-0.3103606380734613	0.08298926619295315	-0.4363261954716063	1.075786638477034	1.075786638476958	-0.1745021481227469	0.174519582325909	-0.05178116272030385	-0.07157749230377071	0.1044211126201064	0.02399120502045217	0.08441714619363812	-0.3223335458010818	-0.009307616341837339	-0.07401729531109145	-4.030400293262502e-05	-0.2026195067734844	-0.2026195067734761	-6.733494216014761e-06	8.755691645458857e-05	0.004362775425544527	-0.005878597850619871	-0.4934640439759146	-0.009098457609063807	-0.01848512674429916	-0.2127133203801514	0.2420031231817615	0.03843995164707965	0.382627972068778	30.23812603749462	-21.64511472485948	2.655664165568203	-1.109009329581492	-735.6278979097513	-46.18592267452968	-4.933241119937301	2.323382521677339	0.4822075523291464	1.734555223348205	-6.759542687591122	-0.1804780831673085	-1.530745675678445	0.008281775967100103	-4.165803043982385	-4.165803043983696	0.01507646546649912	0.002528258784840522	0.04365243001855983	-0.1192753343972962	-6.948366750861855e-09	-2.939350827680749e-08	7.419196216647962e-08	-6.994436701690042e-09	-1.823304355217726e-08	8.524522687751889e-08	-1.980337813018912e-08
1.06	-0.7577623690255003	-0.1891315962008478	0.5833388213471877	2.061892913946584	-0.3104629961095268	0.08217291114487779	-0.4363267186824916	1.073552357592522	1.073552357592361	-0.1745022125040491	0.1745208290785999	-0.05173551308244798	-0.07164252637149592	0.1277458304774891	0.02883902794171941	0.1017233850577038	-0.3899309524273569	-0.01115282447632163	-0.0892419491530512	-6.612707435311522e-05	-0.2442170069150119	-0.2442170069150083	-4.16506610639579e-06	0.0001595802350361137	0.00475514509122277	-0.007119970539594039	-0.4924525787729512	-0.0089463924177349	-0.01852277657801794	-0.2127369677284452	0.2419641889852536	0.03856310537433537	0.3820185474786663	30.26665684418221	-21.71182140587324	2.675694639605523	-1.224373366974983	-735.0449816000714	-46.2877665223612	-5.040448034217536	2.351102787950146	0.4884269955904859	1.727635688014298	-6.770551820195238	-0.1959454515199196	-1.509401057068752	-0.02377379174263001	-4.153550916709739	-4.15355091670908	-0.02996152857263782	0.01725348018134916	0.03400425028836199	-0.1363262302201573	-8.217109622721689e-09	-3.470408672792895e-08	8.840326489091564e-08	-8.413759207926671e-09	-2.149930609260353e-08	1.002058802760779e-07	-2.343963244532711e-08
1.07	-0.7563682982500368	-0.1888188168503981	0.5844421138323374	2.057656602523549	-0.3105834500259126	0.08120477663163254	-0.4363275538973193	1.070902792355435	1.070902792355392	-0.1745022707731636	0.1745227093805311	-0.05168633735554751	-0.07171971469122092	0.1510676253658767	0.03372406819225084	0.1189122205534033	-0.4572832239136951	-0.01292204486090667	-0.1043635869475583	-0.0001007467306059281	-0.2856666479308115	-0.2856666479308229	-7.691835814347358e-06	0.0002106882251527049	0.005064850895436736	-0.008305572291796908	-0.4910621408565127	-0.008730088546185719	-0.01857285055637472	-0.212747528377351	0.2418819849896975	0.03874108576940975	0.3811914913239888	30.30106048934688	-21.80486550028746	2.701634732956327	-1.35950907886122	-734.1700327968373	-46.45196511745606	-5.169090023231542	2.322609645501081	0.4896244553457392	1.711068770768541	-6.710352418191095	-0.1650308035939422	-1.510362861558692	0.006719319142230943	-4.136256345038105	-4.136256345040268	0.01441182864641385	-0.001856086564001934	0.02718405764092443	-0.1078649122267192	-9.477649305693447e-09	-4.001036017746361e-08	1.025431893786182e-07	-9.847073979752802e-09	-2.475088981399976e-08	1.150949058390404e-07	-2.706367031103842e-08
1.08	-0.7547410311644777	-0.1884569707143279	0.5857166069305371	2.052748210864564	-0.3107211202404773	0.08008606219623927	-0.4363287302346583	1.067839613577981	1.067839613578087	-0.174502372294018	0.1745249216530513	-0.05163451850816004	-0.07180839658137099	0.1743850925029726	0.0386523850658143	0.1359635076657942	-0.5243469996135016	-0.01459608411212206	-0.1193579335787348	-0.0001343515185510146	-0.3269397149875424	-0.3269397149875756	-1.281541286064529e-05	0.000225974415612561	0.005283769185749605	-0.009418684624246455	-0.4896717029401106	-0.008513784674628013	-0.01862292453478721	-0.2127580890262842	0.2417997809941267	0.03891906616449062	0.3803644351692665	30.33204062485344	-21.89886056417215	2.729497605386001	-1.508826172894033	-733.3534245397824	-46.59964711052577	-5.319796598040509	2.350237237692306	0.4970823201964147	1.70012601135241	-6.712852662888703	-0.1769092248449961	-1.483942824401217	-0.02357081808342704	-4.118236124896293	-4.118236124896974	-0.03028089003992754	0.01008912024801909	0.01584674750750831	-0.1218283462686622	-1.033018497638315e-08	-4.472196425643291e-08	1.137985734439523e-07	-1.158690521219367e-08	-2.746305626138224e-08	1.268463606600834e-07	-3.006682616067484e-08
